<?xml version="1.0" encoding="UTF-8" standalone="no"?>
<!-- Created with Inkscape (http://www.inkscape.org/) -->

<svg
   xmlns:dc="http://purl.org/dc/elements/1.1/"
   xmlns:cc="http://creativecommons.org/ns#"
   xmlns:rdf="http://www.w3.org/1999/02/22-rdf-syntax-ns#"
   xmlns:svg="http://www.w3.org/2000/svg"
   xmlns="http://www.w3.org/2000/svg"
   xmlns:sodipodi="http://sodipodi.sourceforge.net/DTD/sodipodi-0.dtd"
   xmlns:inkscape="http://www.inkscape.org/namespaces/inkscape"
   width="297mm"
   height="210mm"
   viewBox="0 0 297 210"
   version="1.1"
   id="svg8"
   inkscape:version="0.92.3 (2405546, 2018-03-11)"
   sodipodi:docname="ite.svg">
  <defs
     id="defs2" />
  <sodipodi:namedview
     id="base"
     pagecolor="#ffffff"
     bordercolor="#666666"
     borderopacity="1.0"
     inkscape:pageopacity="0.0"
     inkscape:pageshadow="2"
     inkscape:zoom="0.35"
     inkscape:cx="350"
     inkscape:cy="537.82574"
     inkscape:document-units="mm"
     inkscape:current-layer="layer1"
     showgrid="false"
     inkscape:window-width="1366"
     inkscape:window-height="714"
     inkscape:window-x="0"
     inkscape:window-y="0"
     inkscape:window-maximized="1"
     showguides="true" />
  <metadata
     id="metadata5">
    <rdf:RDF>
      <cc:Work
         rdf:about="">
        <dc:format>image/svg+xml</dc:format>
        <dc:type
           rdf:resource="http://purl.org/dc/dcmitype/StillImage" />
        <dc:title></dc:title>
      </cc:Work>
    </rdf:RDF>
  </metadata>
  <g
     inkscape:label="Layer 1"
     inkscape:groupmode="layer"
     id="layer1"
     transform="translate(0,-87)">
    <path
       style="opacity:0.01000001;fill:#000033;fill-opacity:0;stroke-width:0.26458332"
       d="M 118.68452,43 A 46.113098,74.612556 0 0 1 73.516829,117.59687 46.113098,74.612556 0 0 1 26.497093,46.058743 46.113098,74.612556 0 0 1 69.736809,-31.471455 46.113098,74.612556 0 0 1 118.52953,36.887657 L 72.571426,43 Z"
       id="path305"
       inkscape:connector-curvature="0" />
    <path
       style="opacity:0.01000001;fill:#000033;fill-opacity:0;stroke-width:0.25291392"
       d="m 175.38096,135.16039 a 83.154762,7.5981477 0 0 1 -81.44994,7.59656 83.154762,7.5981477 0 0 1 -84.789682,-7.28507 83.154762,7.5981477 0 0 1 77.973254,-7.89526 83.154762,7.5981477 0 0 1 87.986868,6.96132 l -82.875264,0.62245 z"
       id="path308"
       inkscape:connector-curvature="0" />
    <path
       style="opacity:0.01000001;fill:#000033;fill-opacity:0;stroke-width:0.26458332"
       id="path311"
       sodipodi:type="arc"
       sodipodi:cx="81.264877"
       sodipodi:cy="78.529755"
       sodipodi:rx="1.1339285"
       sodipodi:ry="21.166666"
       sodipodi:start="0"
       sodipodi:end="6.2011723"
       sodipodi:open="true"
       d="m 82.398806,78.529755 a 1.1339285,21.166666 0 0 1 -1.110681,21.162217 1.1339285,21.166666 0 0 1 -1.156223,-20.29449 1.1339285,21.166666 0 0 1 1.063272,-21.994365 1.1339285,21.166666 0 0 1 1.199821,19.392641" />
    <path
       style="opacity:0.01000001;fill:#000033;fill-opacity:0;stroke-width:0.26458332"
       id="path313"
       sodipodi:type="arc"
       sodipodi:cx="82.396896"
       sodipodi:cy="88.246094"
       sodipodi:rx="0.0019075036"
       sodipodi:ry="11.450336"
       sodipodi:start="0"
       sodipodi:end="6.2011723"
       sodipodi:open="true"
       d="m 82.398804,88.246094 a 0.0019075,11.450336 0 0 1 -0.0019,11.44793 0.0019075,11.450336 0 0 1 -0.0019,-10.978524 0.0019075,11.450336 0 0 1 0.0018,-11.898089 0.0019075,11.450336 0 0 1 0.002,10.490659" />
    <path
       style="opacity:0.01000001;fill:#000033;fill-opacity:0;stroke-width:0.26458332"
       id="path315"
       sodipodi:type="arc"
       sodipodi:cx="102.05357"
       sodipodi:cy="113.68154"
       sodipodi:rx="17.386906"
       sodipodi:ry="36.663689"
       sodipodi:start="0"
       sodipodi:end="6.2011723"
       sodipodi:open="true"
       d="M 119.44048,113.68154 A 17.386906,36.663689 0 0 1 102.41004,150.33752 17.386906,36.663689 0 0 1 84.681284,115.18457 17.386906,36.663689 0 0 1 100.98478,77.087189 17.386906,36.663689 0 0 1 119.38204,110.67801" />
    <path
       style="opacity:0.01000001;fill:#000033;fill-opacity:0;stroke-width:0.25291392"
       id="path353"
       sodipodi:type="arc"
       sodipodi:cx="133.80357"
       sodipodi:cy="188.34744"
       sodipodi:rx="34.773811"
       sodipodi:ry="35.918518"
       sodipodi:start="2.5677284"
       sodipodi:end="6.2611593"
       d="m 104.6002,207.84694 a 34.773811,35.918518 0 0 1 1.67443,-41.44447 34.773811,35.918518 0 0 1 38.38925,-12.17688 34.773811,35.918518 0 0 1 23.90507,33.33078 l -34.76538,0.79107 z" />
    <text
       xml:space="preserve"
       style="font-style:normal;font-weight:normal;font-size:10.58333302px;line-height:1.25;font-family:sans-serif;letter-spacing:0px;word-spacing:0px;fill:#000000;fill-opacity:1;stroke:none;stroke-width:0.26458332"
       x="96.005951"
       y="165.46429"
       id="text365"><tspan
         sodipodi:role="line"
         id="tspan363"
         x="96.005951"
         y="174.82806"
         style="stroke-width:0.26458332" /></text>
    <text
       xml:space="preserve"
       style="font-style:normal;font-weight:normal;font-size:145.78485107px;line-height:1.25;font-family:sans-serif;letter-spacing:0px;word-spacing:0px;fill:#000000;fill-opacity:1;stroke:none;stroke-width:3.64462161"
       x="26.425016"
       y="287.06369"
       id="text369"
       transform="scale(1.2491876,0.80052028)"><tspan
         sodipodi:role="line"
         id="tspan367"
         x="26.425016"
         y="287.06369"
         style="stroke-width:3.64462161"><tspan
           style="fill:#000033;stroke-width:3.64462161"
           id="tspan371">iTe</tspan></tspan></text>
    <flowRoot
       xml:space="preserve"
       id="flowRoot379"
       style="fill:black;fill-opacity:1;stroke:none;font-family:sans-serif;font-style:normal;font-weight:normal;font-size:40px;line-height:1.25;letter-spacing:0px;word-spacing:0px"><flowRegion
         id="flowRegion381"><rect
           id="rect383"
           width="231.42857"
           height="82.85714"
           x="497.14285"
           y="242.27223" /></flowRegion><flowPara
         id="flowPara385"></flowPara></flowRoot>    <flowRoot
       xml:space="preserve"
       id="flowRoot391"
       style="fill:black;fill-opacity:1;stroke:none;font-family:sans-serif;font-style:normal;font-weight:normal;font-size:40px;line-height:1.25;letter-spacing:0px;word-spacing:0px"><flowRegion
         id="flowRegion393"><rect
           id="rect395"
           width="151.42857"
           height="108.57143"
           x="748.57141"
           y="225.12938" /></flowRegion><flowPara
         id="flowPara397"></flowPara></flowRoot>    <path
       style="fill:none;stroke:#000000;stroke-width:0.25291392px;stroke-linecap:butt;stroke-linejoin:miter;stroke-opacity:1"
       d="M 139.09524,202.16225 Z"
       id="path403"
       inkscape:connector-curvature="0" />
    <path
       style="fill:none;stroke:#000000;stroke-width:0.26458332px;stroke-linecap:butt;stroke-linejoin:miter;stroke-opacity:1"
       d="m 198.05952,337.82143 6.04762,2.26786"
       id="path405"
       inkscape:connector-curvature="0" />
    <rect
       style="opacity:0.01000001;fill:#000033;fill-opacity:0;stroke-width:0.26458332"
       id="rect409"
       width="278.19049"
       height="189.94862"
       x="10.583333"
       y="101.20834" />
    <rect
       style="opacity:0.01000001;fill:#000033;fill-opacity:0;stroke-width:0.26458332"
       id="rect411"
       width="106.58929"
       height="85.422607"
       x="10.583333"
       y="101.20834" />
    <rect
       style="opacity:0.01000001;fill:#000033;fill-opacity:0;stroke-width:0.26458332"
       id="rect415"
       width="278.19049"
       height="189.94864"
       x="10.583333"
       y="101.20834" />
  </g>
</svg>
